<svg xmlns="http://www.w3.org/2000/svg" version="1.1" xmlns:xlink="http://www.w3.org/1999/xlink" xmlns:svgjs="http://svgjs.dev/svgjs" width="1000" height="386" viewBox="0 0 1000 386"><g transform="matrix(1,0,0,1,-0.6060594019219252,0.38890260815244915)"><svg viewBox="0 0 396 153" data-background-color="#ffffff" preserveAspectRatio="xMidYMid meet" height="386" width="1000" xmlns="http://www.w3.org/2000/svg" xmlns:xlink="http://www.w3.org/1999/xlink"><g id="tight-bounds" transform="matrix(1,0,0,1,0.23999952316108875,1.5757066321560274)"><svg viewBox="0 0 395.52 103.93000220563421" height="103.93000220563421" width="395.52"><g><svg viewBox="0 0 506.3282642001695 133.04686897021278" height="103.93000220563421" width="395.52"><g transform="matrix(1,0,0,1,0,18.387808953191495)"><svg viewBox="0 0 395.52 96.2712510638298" height="96.2712510638298" width="395.52"><g><svg viewBox="0 0 395.52 96.2712510638298" height="96.2712510638298" width="395.52"><g><svg viewBox="0 0 395.52 96.2712510638298" height="96.2712510638298" width="395.52"><g transform="matrix(1,0,0,1,0,0)"><svg width="395.52" viewBox="0.699999988079071 -31.899999618530273 176.24000549316406 42.900001525878906" height="96.2712510638298" data-palette-color="#233565"><g class="undefined-text-0" data-fill-palette-color="primary" id="text-0"><path d="M18.35 0L12.35 0Q8.95 0 7.03-1.95 5.1-3.9 5.1-7.25L5.1-7.25 5.1-31.9 9.7-31.9 9.7-7.55Q9.7-5.9 10.63-4.93 11.55-3.95 13.2-3.95L13.2-3.95 18.35-3.95 18.35 0ZM18.45-21.55L0.7-21.55 0.7-25.5 18.45-25.5 18.45-21.55ZM36.4 0L23.65 0 23.65-3.95 35.85-3.95Q37.05-3.95 37.92-4.48 38.8-5 39.25-5.85 39.7-6.7 39.7-7.65L39.7-7.65Q39.7-8.55 39.3-9.33 38.9-10.1 38.07-10.58 37.25-11.05 36.1-11.05L36.1-11.05 30.95-11.05Q28.5-11.05 26.67-11.88 24.85-12.7 23.82-14.3 22.8-15.9 22.8-18.2L22.8-18.2Q22.8-20.15 23.75-21.8 24.7-23.45 26.4-24.48 28.1-25.5 30.3-25.5L30.3-25.5 42.05-25.5 42.05-21.55 30.75-21.55Q29.2-21.55 28.3-20.6 27.4-19.65 27.4-18.35L27.4-18.35Q27.4-17.1 28.32-16.18 29.25-15.25 30.95-15.25L30.95-15.25 35.85-15.25Q38.6-15.25 40.47-14.38 42.35-13.5 43.32-11.85 44.3-10.2 44.3-7.8L44.3-7.8Q44.3-5.75 43.3-3.98 42.3-2.2 40.52-1.1 38.75 0 36.4 0L36.4 0ZM54 0L48.85 0 57.6-11.75Q55.25-12.55 53.47-14.08 51.7-15.6 50.67-17.68 49.65-19.75 49.65-22.1L49.65-22.1 49.65-25.5 54.3-25.5 54.3-22.1Q54.3-20.25 55.25-18.7 56.2-17.15 57.8-16.2 59.4-15.25 61.25-15L61.25-15 68.95-25.5 74.05-25.5 65.75-14.25Q68.35-13.5 70.22-11.93 72.1-10.35 73.15-8.18 74.2-6 74.2-3.45L74.2-3.45 74.2 0 69.6 0 69.6-3.45Q69.6-5.45 68.6-7.08 67.6-8.7 65.9-9.73 64.2-10.75 62-10.95L62-10.95 54 0ZM99.84 0L93.29 0Q89.09 0 85.84-1.58 82.59-3.15 80.77-6.03 78.94-8.9 78.94-12.75L78.94-12.75Q78.94-16.55 80.49-19.58 82.04-22.6 84.79-24.35 87.54-26.1 91.19-26.1L91.19-26.1Q95.14-26.1 97.77-24.4 100.39-22.7 101.69-19.83 102.99-16.95 102.99-13.4L102.99-13.4Q102.99-12.85 102.97-12.25 102.94-11.65 102.84-11.2L102.84-11.2 83.84-11.2Q84.09-8.85 85.39-7.23 86.69-5.6 88.72-4.78 90.74-3.95 93.19-3.95L93.19-3.95 99.84-3.95 99.84 0ZM83.79-14.45L83.79-14.45 98.34-14.45Q98.34-15.4 98.14-16.48 97.94-17.55 97.44-18.57 96.94-19.6 96.12-20.43 95.29-21.25 94.07-21.75 92.84-22.25 91.19-22.25L91.19-22.25Q89.44-22.25 88.12-21.58 86.79-20.9 85.84-19.78 84.89-18.65 84.39-17.25 83.89-15.85 83.79-14.45ZM121.74-26.1L121.74-26.1Q118.04-26.1 115.09-24.5 112.14-22.9 110.42-19.88 108.69-16.85 108.69-12.6L108.69-12.6 108.69 11 113.29 11 113.29-4.55 113.39-4.55Q114.24-3 115.62-1.85 116.99-0.7 118.77-0.05 120.54 0.6 122.49 0.6L122.49 0.6Q126.04 0.6 128.84-1 131.64-2.6 133.27-5.53 134.89-8.45 134.89-12.45L134.89-12.45Q134.89-15.6 133.92-18.13 132.94-20.65 131.19-22.45 129.44-24.25 127.04-25.18 124.64-26.1 121.74-26.1ZM121.74-22.15L121.74-22.15Q124.09-22.15 126.02-21 127.94-19.85 129.09-17.75 130.24-15.65 130.24-12.75L130.24-12.75Q130.24-9.95 129.12-7.85 127.99-5.75 126.09-4.55 124.19-3.35 121.79-3.35L121.79-3.35Q119.44-3.35 117.52-4.5 115.59-5.65 114.47-7.78 113.34-9.9 113.34-12.8L113.34-12.8Q113.34-15.65 114.47-17.75 115.59-19.85 117.52-21 119.44-22.15 121.74-22.15ZM152.79 0.6L152.79 0.6Q148.89 0.6 145.89-1.18 142.89-2.95 141.14-5.98 139.39-9 139.39-12.75L139.39-12.75Q139.39-16.5 141.14-19.53 142.89-22.55 145.89-24.33 148.89-26.1 152.79-26.1L152.79-26.1Q156.69-26.1 159.71-24.33 162.74-22.55 164.46-19.53 166.19-16.5 166.19-12.75L166.19-12.75Q166.19-9 164.46-5.98 162.74-2.95 159.71-1.18 156.69 0.6 152.79 0.6ZM152.79-3.35L152.79-3.35Q155.44-3.35 157.39-4.6 159.34-5.85 160.44-7.98 161.54-10.1 161.54-12.75L161.54-12.75Q161.54-15.4 160.44-17.53 159.34-19.65 157.39-20.9 155.44-22.15 152.79-22.15L152.79-22.15Q150.19-22.15 148.21-20.9 146.24-19.65 145.14-17.53 144.04-15.4 144.04-12.75L144.04-12.75Q144.04-10.1 145.14-7.98 146.24-5.85 148.21-4.6 150.19-3.35 152.79-3.35ZM173.64 0.5L173.64 0.5Q172.29 0.5 171.31-0.48 170.34-1.45 170.34-2.8L170.34-2.8Q170.34-4.15 171.31-5.13 172.29-6.1 173.64-6.1L173.64-6.1Q174.99-6.1 175.96-5.13 176.94-4.15 176.94-2.8L176.94-2.8Q176.94-1.9 176.51-1.15 176.09-0.4 175.34 0.05 174.59 0.5 173.64 0.5Z" fill="#233565" data-fill-palette-color="primary"></path></g></svg></g></svg></g></svg></g></svg></g><g transform="matrix(1,0,0,1,418.2473318661447,0)"><svg viewBox="0 0 88.08093233402482 133.04686897021278" height="133.04686897021278" width="88.08093233402482"><g><svg xmlns="http://www.w3.org/2000/svg" xmlns:xlink="http://www.w3.org/1999/xlink" version="1.1" x="0" y="0" viewBox="24.761856079101562 5 59.5826416015625 90" enable-background="new 0 0 100 100" xml:space="preserve" height="133.04686897021278" width="88.08093233402482" class="icon-icon-0" data-fill-palette-color="accent" id="icon-0"><g fill="#01ee97" data-fill-palette-color="accent"><path d="M73.76 35.603C86.875 48 91.5 66.25 65.633 82.379c3.64-4.928 5.654-9.794 6.096-14.669 0.951-10.516-5.606-19.072-12.835-26.752C48.298 29.7 47.51 18.84 56.413 6.782 54.578 22.641 64.6 26.944 73.76 35.603zM45.288 93.716c6.184-13.053 7.276-20.302-8.197-34.939-4.204-3.977-7.451-8.029-9.71-12.086-2.881 6.435-5.164 20.081 3.244 27.935C36.312 79.938 44.125 83.125 45.288 93.716zM56.709 43.014C48.183 33.954 41.999 21.253 54 5 21.497 17.692 19.625 38.125 39.151 56.597 55.603 72.158 54.75 80.75 48 95 79.875 71.5 68.709 55.764 56.709 43.014z" fill="#01ee97" data-fill-palette-color="accent"></path></g><g display="none" fill="#01ee97" data-fill-palette-color="accent"><path display="inline" d="M54 5C16.75 17.5 14.875 56.5 26.75 70.762c10.558 12.68 15.407 7.949 19.675 20.824" fill="#01ee97" data-fill-palette-color="accent"></path><line display="inline" x1="56.988" y1="5.261" x2="45.528" y2="136.262" fill="#01ee97" data-fill-palette-color="accent"></line><line display="inline" x1="54.131" y1="3.502" x2="42.67" y2="134.502" fill="#01ee97" data-fill-palette-color="accent"></line><path display="inline" d="M42.875 76" fill="#01ee97" data-fill-palette-color="accent"></path></g></svg></g></svg></g></svg></g><defs></defs></svg><rect width="395.52" height="103.93000220563421" fill="none" stroke="none" visibility="hidden"></rect></g></svg></g></svg>